<svg height="9134" width="720" xmlns="http://www.w3.org/2000/svg">
<rect height="9134" fill="#555" width="720"></rect>
<text fill="#7f7" font-family="Courier New" font-size="12" xml:space="preserve">
<tspan x="10" y="26">65 megabytes installed</tspan>
<tspan x="10" y="42"></tspan>
<tspan x="10" y="58">node_modules</tspan>
<tspan x="10" y="74">└─┬ generator-meanjs@0.4.5 </tspan>
<tspan x="10" y="90">  ├── bluebird@3.0.6 </tspan>
<tspan x="10" y="106">  ├─┬ chalk@1.1.3 </tspan>
<tspan x="10" y="122">  │ ├── ansi-styles@2.2.1 </tspan>
<tspan x="10" y="138">  │ ├── escape-string-regexp@1.0.5 </tspan>
<tspan x="10" y="154">  │ ├─┬ has-ansi@2.0.0 </tspan>
<tspan x="10" y="170">  │ │ └── ansi-regex@2.1.1 </tspan>
<tspan x="10" y="186">  │ ├── strip-ansi@3.0.1 </tspan>
<tspan x="10" y="202">  │ └── supports-color@2.0.0 </tspan>
<tspan x="10" y="218">  ├── ejs@2.3.4 </tspan>
<tspan x="10" y="234">  ├─┬ html-wiring@1.2.0 </tspan>
<tspan x="10" y="250">  │ ├─┬ cheerio@0.19.0 </tspan>
<tspan x="10" y="266">  │ │ ├─┬ css-select@1.0.0 </tspan>
<tspan x="10" y="282">  │ │ │ ├── boolbase@1.0.0 </tspan>
<tspan x="10" y="298">  │ │ │ ├── css-what@1.0.0 </tspan>
<tspan x="10" y="314">  │ │ │ ├── domutils@1.4.3 </tspan>
<tspan x="10" y="330">  │ │ │ └── nth-check@1.0.1 </tspan>
<tspan x="10" y="346">  │ │ ├─┬ dom-serializer@0.1.0 </tspan>
<tspan x="10" y="362">  │ │ │ └── domelementtype@1.1.3 </tspan>
<tspan x="10" y="378">  │ │ ├── entities@1.1.1 </tspan>
<tspan x="10" y="394">  │ │ ├─┬ htmlparser2@3.8.3 </tspan>
<tspan x="10" y="410">  │ │ │ ├── domelementtype@1.3.0 </tspan>
<tspan x="10" y="426">  │ │ │ ├── domhandler@2.3.0 </tspan>
<tspan x="10" y="442">  │ │ │ ├── domutils@1.5.1 </tspan>
<tspan x="10" y="458">  │ │ │ ├── entities@1.0.0 </tspan>
<tspan x="10" y="474">  │ │ │ └─┬ readable-stream@1.1.14 </tspan>
<tspan x="10" y="490">  │ │ │   ├── isarray@0.0.1 </tspan>
<tspan x="10" y="506">  │ │ │   └── string_decoder@0.10.31 </tspan>
<tspan x="10" y="522">  │ │ └── lodash@3.10.1 </tspan>
<tspan x="10" y="538">  │ └─┬ detect-newline@1.0.3 </tspan>
<tspan x="10" y="554">  │   ├── get-stdin@4.0.1 </tspan>
<tspan x="10" y="570">  │   └── minimist@1.2.0 </tspan>
<tspan x="10" y="586">  ├── lodash@4.0.1 </tspan>
<tspan x="10" y="602">  ├─┬ mkdirp@0.5.1 </tspan>
<tspan x="10" y="618">  │ └── minimist@0.0.8 </tspan>
<tspan x="10" y="634">  ├─┬ rimraf@2.5.4 </tspan>
<tspan x="10" y="650">  │ └─┬ glob@7.1.1 </tspan>
<tspan x="10" y="666">  │   ├── fs.realpath@1.0.0 </tspan>
<tspan x="10" y="682">  │   ├─┬ inflight@1.0.6 </tspan>
<tspan x="10" y="698">  │   │ └── wrappy@1.0.2 </tspan>
<tspan x="10" y="714">  │   ├── inherits@2.0.3 </tspan>
<tspan x="10" y="730">  │   ├─┬ minimatch@3.0.3 </tspan>
<tspan x="10" y="746">  │   │ └─┬ brace-expansion@1.1.7 </tspan>
<tspan x="10" y="762">  │   │   ├── balanced-match@0.4.2 </tspan>
<tspan x="10" y="778">  │   │   └── concat-map@0.0.1 </tspan>
<tspan x="10" y="794">  │   └── once@1.4.0 </tspan>
<tspan x="10" y="810">  ├─┬ underscore.inflections@0.2.1 </tspan>
<tspan x="10" y="826">  │ └── underscore@1.8.3 </tspan>
<tspan x="10" y="842">  ├── underscore.string@3.2.3 </tspan>
<tspan x="10" y="858">  ├─┬ yeoman-generator@0.21.2 </tspan>
<tspan x="10" y="874">  │ ├── async@1.5.2 </tspan>
<tspan x="10" y="890">  │ ├─┬ class-extend@0.1.2 </tspan>
<tspan x="10" y="906">  │ │ └── object-assign@2.1.1 </tspan>
<tspan x="10" y="922">  │ ├─┬ cli-table@0.3.1 </tspan>
<tspan x="10" y="938">  │ │ └── colors@1.0.3 </tspan>
<tspan x="10" y="954">  │ ├─┬ cross-spawn@2.2.3 </tspan>
<tspan x="10" y="970">  │ │ └─┬ spawn-sync@1.0.15 </tspan>
<tspan x="10" y="986">  │ │   └── os-shim@0.1.3 </tspan>
<tspan x="10" y="1002">  │ ├─┬ dargs@4.1.0 </tspan>
<tspan x="10" y="1018">  │ │ └── number-is-nan@1.0.1 </tspan>
<tspan x="10" y="1034">  │ ├── dateformat@1.0.12 </tspan>
<tspan x="10" y="1050">  │ ├─┬ debug@2.6.3 </tspan>
<tspan x="10" y="1066">  │ │ └── ms@0.7.2 </tspan>
<tspan x="10" y="1082">  │ ├── detect-conflict@1.0.1 </tspan>
<tspan x="10" y="1098">  │ ├─┬ download@4.4.3 </tspan>
<tspan x="10" y="1114">  │ │ ├─┬ caw@1.2.0 </tspan>
<tspan x="10" y="1130">  │ │ │ ├── get-proxy@1.1.0 </tspan>
<tspan x="10" y="1146">  │ │ │ ├── is-obj@1.0.1 </tspan>
<tspan x="10" y="1162">  │ │ │ ├── object-assign@3.0.0 </tspan>
<tspan x="10" y="1178">  │ │ │ └── tunnel-agent@0.4.3 </tspan>
<tspan x="10" y="1194">  │ │ ├─┬ concat-stream@1.6.0 </tspan>
<tspan x="10" y="1210">  │ │ │ ├─┬ readable-stream@2.2.9 </tspan>
<tspan x="10" y="1226">  │ │ │ │ ├── isarray@1.0.0 </tspan>
<tspan x="10" y="1242">  │ │ │ │ └── string_decoder@1.0.0 </tspan>
<tspan x="10" y="1258">  │ │ │ └── typedarray@0.0.6 </tspan>
<tspan x="10" y="1274">  │ │ ├─┬ each-async@1.1.1 </tspan>
<tspan x="10" y="1290">  │ │ │ ├── onetime@1.1.0 </tspan>
<tspan x="10" y="1306">  │ │ │ └── set-immediate-shim@1.0.1 </tspan>
<tspan x="10" y="1322">  │ │ ├─┬ filenamify@1.2.1 </tspan>
<tspan x="10" y="1338">  │ │ │ ├── filename-reserved-regex@1.0.0 </tspan>
<tspan x="10" y="1354">  │ │ │ ├── strip-outer@1.0.0 </tspan>
<tspan x="10" y="1370">  │ │ │ └── trim-repeated@1.0.0 </tspan>
<tspan x="10" y="1386">  │ │ ├─┬ gulp-decompress@1.2.0 </tspan>
<tspan x="10" y="1402">  │ │ │ ├─┬ archive-type@3.2.0 </tspan>
<tspan x="10" y="1418">  │ │ │ │ └── file-type@3.9.0 </tspan>
<tspan x="10" y="1434">  │ │ │ ├─┬ decompress@3.0.0 </tspan>
<tspan x="10" y="1450">  │ │ │ │ ├─┬ buffer-to-vinyl@1.1.0 </tspan>
<tspan x="10" y="1466">  │ │ │ │ │ └─┬ readable-stream@2.2.9 </tspan>
<tspan x="10" y="1482">  │ │ │ │ │   ├── isarray@1.0.0 </tspan>
<tspan x="10" y="1498">  │ │ │ │ │   └── string_decoder@1.0.0 </tspan>
<tspan x="10" y="1514">  │ │ │ │ ├─┬ decompress-tar@3.1.0 </tspan>
<tspan x="10" y="1530">  │ │ │ │ │ ├── is-tar@1.0.0 </tspan>
<tspan x="10" y="1546">  │ │ │ │ │ ├─┬ strip-dirs@1.1.1 </tspan>
<tspan x="10" y="1562">  │ │ │ │ │ │ ├─┬ is-absolute@0.1.7 </tspan>
<tspan x="10" y="1578">  │ │ │ │ │ │ │ └── is-relative@0.1.3 </tspan>
<tspan x="10" y="1594">  │ │ │ │ │ │ ├── is-natural-number@2.1.1 </tspan>
<tspan x="10" y="1610">  │ │ │ │ │ │ └── sum-up@1.0.3 </tspan>
<tspan x="10" y="1626">  │ │ │ │ │ ├─┬ tar-stream@1.5.2 </tspan>
<tspan x="10" y="1642">  │ │ │ │ │ │ ├─┬ bl@1.2.0 </tspan>
<tspan x="10" y="1658">  │ │ │ │ │ │ │ └─┬ readable-stream@2.2.9 </tspan>
<tspan x="10" y="1674">  │ │ │ │ │ │ │   ├── isarray@1.0.0 </tspan>
<tspan x="10" y="1690">  │ │ │ │ │ │ │   └── string_decoder@1.0.0 </tspan>
<tspan x="10" y="1706">  │ │ │ │ │ │ ├── end-of-stream@1.4.0 </tspan>
<tspan x="10" y="1722">  │ │ │ │ │ │ └─┬ readable-stream@2.2.9 </tspan>
<tspan x="10" y="1738">  │ │ │ │ │ │   ├── isarray@1.0.0 </tspan>
<tspan x="10" y="1754">  │ │ │ │ │ │   └── string_decoder@1.0.0 </tspan>
<tspan x="10" y="1770">  │ │ │ │ │ ├─┬ through2@0.6.5 </tspan>
<tspan x="10" y="1786">  │ │ │ │ │ │ └── readable-stream@1.0.34 </tspan>
<tspan x="10" y="1802">  │ │ │ │ │ └─┬ vinyl@0.4.6 </tspan>
<tspan x="10" y="1818">  │ │ │ │ │   └── clone@0.2.0 </tspan>
<tspan x="10" y="1834">  │ │ │ │ ├─┬ decompress-tarbz2@3.1.0 </tspan>
<tspan x="10" y="1850">  │ │ │ │ │ ├── is-bzip2@1.0.0 </tspan>
<tspan x="10" y="1866">  │ │ │ │ │ ├─┬ seek-bzip@1.0.5 </tspan>
<tspan x="10" y="1882">  │ │ │ │ │ │ └─┬ commander@2.8.1 </tspan>
<tspan x="10" y="1898">  │ │ │ │ │ │   └── graceful-readlink@1.0.1 </tspan>
<tspan x="10" y="1914">  │ │ │ │ │ ├─┬ through2@0.6.5 </tspan>
<tspan x="10" y="1930">  │ │ │ │ │ │ └── readable-stream@1.0.34 </tspan>
<tspan x="10" y="1946">  │ │ │ │ │ └─┬ vinyl@0.4.6 </tspan>
<tspan x="10" y="1962">  │ │ │ │ │   └── clone@0.2.0 </tspan>
<tspan x="10" y="1978">  │ │ │ │ ├─┬ decompress-targz@3.1.0 </tspan>
<tspan x="10" y="1994">  │ │ │ │ │ ├── is-gzip@1.0.0 </tspan>
<tspan x="10" y="2010">  │ │ │ │ │ ├─┬ through2@0.6.5 </tspan>
<tspan x="10" y="2026">  │ │ │ │ │ │ └── readable-stream@1.0.34 </tspan>
<tspan x="10" y="2042">  │ │ │ │ │ └─┬ vinyl@0.4.6 </tspan>
<tspan x="10" y="2058">  │ │ │ │ │   └── clone@0.2.0 </tspan>
<tspan x="10" y="2074">  │ │ │ │ ├─┬ decompress-unzip@3.4.0 </tspan>
<tspan x="10" y="2090">  │ │ │ │ │ ├── is-zip@1.0.0 </tspan>
<tspan x="10" y="2106">  │ │ │ │ │ ├── stat-mode@0.2.2 </tspan>
<tspan x="10" y="2122">  │ │ │ │ │ └─┬ yauzl@2.7.0 </tspan>
<tspan x="10" y="2138">  │ │ │ │ │   ├── buffer-crc32@0.2.13 </tspan>
<tspan x="10" y="2154">  │ │ │ │ │   └─┬ fd-slicer@1.0.1 </tspan>
<tspan x="10" y="2170">  │ │ │ │ │     └── pend@1.2.0 </tspan>
<tspan x="10" y="2186">  │ │ │ │ └─┬ vinyl-assign@1.2.1 </tspan>
<tspan x="10" y="2202">  │ │ │ │   ├── object-assign@4.1.1 </tspan>
<tspan x="10" y="2218">  │ │ │ │   └─┬ readable-stream@2.2.9 </tspan>
<tspan x="10" y="2234">  │ │ │ │     ├── isarray@1.0.0 </tspan>
<tspan x="10" y="2250">  │ │ │ │     └── string_decoder@1.0.0 </tspan>
<tspan x="10" y="2266">  │ │ │ ├─┬ gulp-util@3.0.8 </tspan>
<tspan x="10" y="2282">  │ │ │ │ ├── array-uniq@1.0.3 </tspan>
<tspan x="10" y="2298">  │ │ │ │ ├── beeper@1.1.1 </tspan>
<tspan x="10" y="2314">  │ │ │ │ ├── dateformat@2.0.0 </tspan>
<tspan x="10" y="2330">  │ │ │ │ ├─┬ fancy-log@1.3.0 </tspan>
<tspan x="10" y="2346">  │ │ │ │ │ └── time-stamp@1.0.1 </tspan>
<tspan x="10" y="2362">  │ │ │ │ ├─┬ gulplog@1.0.0 </tspan>
<tspan x="10" y="2378">  │ │ │ │ │ └── glogg@1.0.0 </tspan>
<tspan x="10" y="2394">  │ │ │ │ ├─┬ has-gulplog@0.1.0 </tspan>
<tspan x="10" y="2410">  │ │ │ │ │ └── sparkles@1.0.0 </tspan>
<tspan x="10" y="2426">  │ │ │ │ ├── lodash._reescape@3.0.0 </tspan>
<tspan x="10" y="2442">  │ │ │ │ ├── lodash._reevaluate@3.0.0 </tspan>
<tspan x="10" y="2458">  │ │ │ │ ├── lodash._reinterpolate@3.0.0 </tspan>
<tspan x="10" y="2474">  │ │ │ │ ├─┬ lodash.template@3.6.2 </tspan>
<tspan x="10" y="2490">  │ │ │ │ │ ├── lodash._basecopy@3.0.1 </tspan>
<tspan x="10" y="2506">  │ │ │ │ │ ├── lodash._basetostring@3.0.1 </tspan>
<tspan x="10" y="2522">  │ │ │ │ │ ├── lodash._basevalues@3.0.0 </tspan>
<tspan x="10" y="2538">  │ │ │ │ │ ├── lodash._isiterateecall@3.0.9 </tspan>
<tspan x="10" y="2554">  │ │ │ │ │ ├─┬ lodash.escape@3.2.0 </tspan>
<tspan x="10" y="2570">  │ │ │ │ │ │ └── lodash._root@3.0.1 </tspan>
<tspan x="10" y="2586">  │ │ │ │ │ ├─┬ lodash.keys@3.1.2 </tspan>
<tspan x="10" y="2602">  │ │ │ │ │ │ ├── lodash.isarguments@3.1.0 </tspan>
<tspan x="10" y="2618">  │ │ │ │ │ │ └── lodash.isarray@3.0.4 </tspan>
<tspan x="10" y="2634">  │ │ │ │ │ ├── lodash.restparam@3.6.1 </tspan>
<tspan x="10" y="2650">  │ │ │ │ │ └── lodash.templatesettings@3.1.1 </tspan>
<tspan x="10" y="2666">  │ │ │ │ ├─┬ multipipe@0.1.2 </tspan>
<tspan x="10" y="2682">  │ │ │ │ │ └── duplexer2@0.0.2 </tspan>
<tspan x="10" y="2698">  │ │ │ │ ├── object-assign@3.0.0 </tspan>
<tspan x="10" y="2714">  │ │ │ │ └── vinyl@0.5.3 </tspan>
<tspan x="10" y="2730">  │ │ │ └─┬ readable-stream@2.2.9 </tspan>
<tspan x="10" y="2746">  │ │ │   ├── isarray@1.0.0 </tspan>
<tspan x="10" y="2762">  │ │ │   └── string_decoder@1.0.0 </tspan>
<tspan x="10" y="2778">  │ │ ├── gulp-rename@1.2.2 </tspan>
<tspan x="10" y="2794">  │ │ ├── is-url@1.2.2 </tspan>
<tspan x="10" y="2810">  │ │ ├── object-assign@4.1.1 </tspan>
<tspan x="10" y="2826">  │ │ ├─┬ read-all-stream@3.1.0 </tspan>
<tspan x="10" y="2842">  │ │ │ └─┬ readable-stream@2.2.9 </tspan>
<tspan x="10" y="2858">  │ │ │   ├── isarray@1.0.0 </tspan>
<tspan x="10" y="2874">  │ │ │   └── string_decoder@1.0.0 </tspan>
<tspan x="10" y="2890">  │ │ ├─┬ readable-stream@2.2.9 </tspan>
<tspan x="10" y="2906">  │ │ │ ├── buffer-shims@1.0.0 </tspan>
<tspan x="10" y="2922">  │ │ │ ├── core-util-is@1.0.2 </tspan>
<tspan x="10" y="2938">  │ │ │ ├── isarray@1.0.0 </tspan>
<tspan x="10" y="2954">  │ │ │ ├── process-nextick-args@1.0.7 </tspan>
<tspan x="10" y="2970">  │ │ │ ├── string_decoder@1.0.0 </tspan>
<tspan x="10" y="2986">  │ │ │ └── util-deprecate@1.0.2 </tspan>
<tspan x="10" y="3002">  │ │ ├─┬ stream-combiner2@1.1.1 </tspan>
<tspan x="10" y="3018">  │ │ │ └─┬ readable-stream@2.2.9 </tspan>
<tspan x="10" y="3034">  │ │ │   ├── isarray@1.0.0 </tspan>
<tspan x="10" y="3050">  │ │ │   └── string_decoder@1.0.0 </tspan>
<tspan x="10" y="3066">  │ │ ├─┬ vinyl@1.2.0 </tspan>
<tspan x="10" y="3082">  │ │ │ ├── clone@1.0.2 </tspan>
<tspan x="10" y="3098">  │ │ │ ├── clone-stats@0.0.1 </tspan>
<tspan x="10" y="3114">  │ │ │ └── replace-ext@0.0.1 </tspan>
<tspan x="10" y="3130">  │ │ ├─┬ vinyl-fs@2.4.4 </tspan>
<tspan x="10" y="3146">  │ │ │ ├─┬ duplexify@3.5.0 </tspan>
<tspan x="10" y="3162">  │ │ │ │ ├─┬ end-of-stream@1.0.0 </tspan>
<tspan x="10" y="3178">  │ │ │ │ │ └── once@1.3.3 </tspan>
<tspan x="10" y="3194">  │ │ │ │ ├─┬ readable-stream@2.2.9 </tspan>
<tspan x="10" y="3210">  │ │ │ │ │ ├── isarray@1.0.0 </tspan>
<tspan x="10" y="3226">  │ │ │ │ │ └── string_decoder@1.0.0 </tspan>
<tspan x="10" y="3242">  │ │ │ │ └── stream-shift@1.0.0 </tspan>
<tspan x="10" y="3258">  │ │ │ ├─┬ glob-stream@5.3.5 </tspan>
<tspan x="10" y="3274">  │ │ │ │ ├── glob@5.0.15 </tspan>
<tspan x="10" y="3290">  │ │ │ │ ├─┬ glob-parent@3.1.0 </tspan>
<tspan x="10" y="3306">  │ │ │ │ │ ├─┬ is-glob@3.1.0 </tspan>
<tspan x="10" y="3322">  │ │ │ │ │ │ └── is-extglob@2.1.1 </tspan>
<tspan x="10" y="3338">  │ │ │ │ │ └── path-dirname@1.0.2 </tspan>
<tspan x="10" y="3354">  │ │ │ │ ├─┬ micromatch@2.3.11 </tspan>
<tspan x="10" y="3370">  │ │ │ │ │ ├─┬ arr-diff@2.0.0 </tspan>
<tspan x="10" y="3386">  │ │ │ │ │ │ └── arr-flatten@1.0.3 </tspan>
<tspan x="10" y="3402">  │ │ │ │ │ ├── array-unique@0.2.1 </tspan>
<tspan x="10" y="3418">  │ │ │ │ │ ├─┬ braces@1.8.5 </tspan>
<tspan x="10" y="3434">  │ │ │ │ │ │ ├─┬ expand-range@1.8.2 </tspan>
<tspan x="10" y="3450">  │ │ │ │ │ │ │ └─┬ fill-range@2.2.3 </tspan>
<tspan x="10" y="3466">  │ │ │ │ │ │ │   ├── is-number@2.1.0 </tspan>
<tspan x="10" y="3482">  │ │ │ │ │ │ │   ├─┬ isobject@2.1.0 </tspan>
<tspan x="10" y="3498">  │ │ │ │ │ │ │   │ └── isarray@1.0.0 </tspan>
<tspan x="10" y="3514">  │ │ │ │ │ │ │   ├── randomatic@1.1.6 </tspan>
<tspan x="10" y="3530">  │ │ │ │ │ │ │   └── repeat-string@1.6.1 </tspan>
<tspan x="10" y="3546">  │ │ │ │ │ │ ├── preserve@0.2.0 </tspan>
<tspan x="10" y="3562">  │ │ │ │ │ │ └── repeat-element@1.1.2 </tspan>
<tspan x="10" y="3578">  │ │ │ │ │ ├─┬ expand-brackets@0.1.5 </tspan>
<tspan x="10" y="3594">  │ │ │ │ │ │ └── is-posix-bracket@0.1.1 </tspan>
<tspan x="10" y="3610">  │ │ │ │ │ ├─┬ extglob@0.3.2 </tspan>
<tspan x="10" y="3626">  │ │ │ │ │ │ └── is-extglob@1.0.0 </tspan>
<tspan x="10" y="3642">  │ │ │ │ │ ├── filename-regex@2.0.0 </tspan>
<tspan x="10" y="3658">  │ │ │ │ │ ├── is-extglob@1.0.0 </tspan>
<tspan x="10" y="3674">  │ │ │ │ │ ├── is-glob@2.0.1 </tspan>
<tspan x="10" y="3690">  │ │ │ │ │ ├─┬ kind-of@3.1.0 </tspan>
<tspan x="10" y="3706">  │ │ │ │ │ │ └── is-buffer@1.1.5 </tspan>
<tspan x="10" y="3722">  │ │ │ │ │ ├─┬ normalize-path@2.1.1 </tspan>
<tspan x="10" y="3738">  │ │ │ │ │ │ └── remove-trailing-separator@1.0.1 </tspan>
<tspan x="10" y="3754">  │ │ │ │ │ ├─┬ object.omit@2.0.1 </tspan>
<tspan x="10" y="3770">  │ │ │ │ │ │ ├─┬ for-own@0.1.5 </tspan>
<tspan x="10" y="3786">  │ │ │ │ │ │ │ └── for-in@1.0.2 </tspan>
<tspan x="10" y="3802">  │ │ │ │ │ │ └── is-extendable@0.1.1 </tspan>
<tspan x="10" y="3818">  │ │ │ │ │ ├─┬ parse-glob@3.0.4 </tspan>
<tspan x="10" y="3834">  │ │ │ │ │ │ ├─┬ glob-base@0.3.0 </tspan>
<tspan x="10" y="3850">  │ │ │ │ │ │ │ ├── glob-parent@2.0.0 </tspan>
<tspan x="10" y="3866">  │ │ │ │ │ │ │ └─┬ is-glob@2.0.1 </tspan>
<tspan x="10" y="3882">  │ │ │ │ │ │ │   └── is-extglob@1.0.0 </tspan>
<tspan x="10" y="3898">  │ │ │ │ │ │ ├── is-dotfile@1.0.2 </tspan>
<tspan x="10" y="3914">  │ │ │ │ │ │ ├── is-extglob@1.0.0 </tspan>
<tspan x="10" y="3930">  │ │ │ │ │ │ └── is-glob@2.0.1 </tspan>
<tspan x="10" y="3946">  │ │ │ │ │ └─┬ regex-cache@0.4.3 </tspan>
<tspan x="10" y="3962">  │ │ │ │ │   ├── is-equal-shallow@0.1.3 </tspan>
<tspan x="10" y="3978">  │ │ │ │ │   └── is-primitive@2.0.0 </tspan>
<tspan x="10" y="3994">  │ │ │ │ ├─┬ ordered-read-streams@0.3.0 </tspan>
<tspan x="10" y="4010">  │ │ │ │ │ └─┬ readable-stream@2.2.9 </tspan>
<tspan x="10" y="4026">  │ │ │ │ │   ├── isarray@1.0.0 </tspan>
<tspan x="10" y="4042">  │ │ │ │ │   └── string_decoder@1.0.0 </tspan>
<tspan x="10" y="4058">  │ │ │ │ ├─┬ through2@0.6.5 </tspan>
<tspan x="10" y="4074">  │ │ │ │ │ └── readable-stream@1.0.34 </tspan>
<tspan x="10" y="4090">  │ │ │ │ ├─┬ to-absolute-glob@0.1.1 </tspan>
<tspan x="10" y="4106">  │ │ │ │ │ └── extend-shallow@2.0.1 </tspan>
<tspan x="10" y="4122">  │ │ │ │ └─┬ unique-stream@2.2.1 </tspan>
<tspan x="10" y="4138">  │ │ │ │   └─┬ json-stable-stringify@1.0.1 </tspan>
<tspan x="10" y="4154">  │ │ │ │     └── jsonify@0.0.0 </tspan>
<tspan x="10" y="4170">  │ │ │ ├─┬ gulp-sourcemaps@1.6.0 </tspan>
<tspan x="10" y="4186">  │ │ │ │ └── convert-source-map@1.5.0 </tspan>
<tspan x="10" y="4202">  │ │ │ ├── is-valid-glob@0.3.0 </tspan>
<tspan x="10" y="4218">  │ │ │ ├─┬ lazystream@1.0.0 </tspan>
<tspan x="10" y="4234">  │ │ │ │ └─┬ readable-stream@2.2.9 </tspan>
<tspan x="10" y="4250">  │ │ │ │   ├── isarray@1.0.0 </tspan>
<tspan x="10" y="4266">  │ │ │ │   └── string_decoder@1.0.0 </tspan>
<tspan x="10" y="4282">  │ │ │ ├── lodash.isequal@4.5.0 </tspan>
<tspan x="10" y="4298">  │ │ │ ├─┬ merge-stream@1.0.1 </tspan>
<tspan x="10" y="4314">  │ │ │ │ └─┬ readable-stream@2.2.9 </tspan>
<tspan x="10" y="4330">  │ │ │ │   ├── isarray@1.0.0 </tspan>
<tspan x="10" y="4346">  │ │ │ │   └── string_decoder@1.0.0 </tspan>
<tspan x="10" y="4362">  │ │ │ ├── object-assign@4.1.1 </tspan>
<tspan x="10" y="4378">  │ │ │ ├─┬ readable-stream@2.2.9 </tspan>
<tspan x="10" y="4394">  │ │ │ │ ├── isarray@1.0.0 </tspan>
<tspan x="10" y="4410">  │ │ │ │ └── string_decoder@1.0.0 </tspan>
<tspan x="10" y="4426">  │ │ │ ├─┬ strip-bom@2.0.0 </tspan>
<tspan x="10" y="4442">  │ │ │ │ └── is-utf8@0.2.1 </tspan>
<tspan x="10" y="4458">  │ │ │ ├─┬ strip-bom-stream@1.0.0 </tspan>
<tspan x="10" y="4474">  │ │ │ │ └── first-chunk-stream@1.0.0 </tspan>
<tspan x="10" y="4490">  │ │ │ ├── through2-filter@2.0.0 </tspan>
<tspan x="10" y="4506">  │ │ │ └── vali-date@1.0.0 </tspan>
<tspan x="10" y="4522">  │ │ └─┬ ware@1.3.0 </tspan>
<tspan x="10" y="4538">  │ │   └─┬ wrap-fn@0.1.5 </tspan>
<tspan x="10" y="4554">  │ │     └── co@3.1.0 </tspan>
<tspan x="10" y="4570">  │ ├─┬ find-up@1.1.2 </tspan>
<tspan x="10" y="4586">  │ │ └─┬ pinkie-promise@2.0.1 </tspan>
<tspan x="10" y="4602">  │ │   └── pinkie@2.0.4 </tspan>
<tspan x="10" y="4618">  │ ├─┬ github-username@2.1.0 </tspan>
<tspan x="10" y="4634">  │ │ └─┬ gh-got@2.4.0 </tspan>
<tspan x="10" y="4650">  │ │   └── object-assign@4.1.1 </tspan>
<tspan x="10" y="4666">  │ ├── glob@5.0.15 </tspan>
<tspan x="10" y="4682">  │ ├─┬ gruntfile-editor@1.2.1 </tspan>
<tspan x="10" y="4698">  │ │ ├─┬ ast-query@2.0.0 </tspan>
<tspan x="10" y="4714">  │ │ │ ├─┬ acorn-jsx@3.0.1 </tspan>
<tspan x="10" y="4730">  │ │ │ │ └── acorn@3.3.0 </tspan>
<tspan x="10" y="4746">  │ │ │ ├─┬ escodegen-wallaby@1.6.11 </tspan>
<tspan x="10" y="4762">  │ │ │ │ ├── esprima@2.7.3 </tspan>
<tspan x="10" y="4778">  │ │ │ │ ├── estraverse@1.9.3 </tspan>
<tspan x="10" y="4794">  │ │ │ │ ├── esutils@2.0.2 </tspan>
<tspan x="10" y="4810">  │ │ │ │ ├─┬ optionator@0.8.2 </tspan>
<tspan x="10" y="4826">  │ │ │ │ │ ├── deep-is@0.1.3 </tspan>
<tspan x="10" y="4842">  │ │ │ │ │ ├── fast-levenshtein@2.0.6 </tspan>
<tspan x="10" y="4858">  │ │ │ │ │ ├── levn@0.3.0 </tspan>
<tspan x="10" y="4874">  │ │ │ │ │ ├── prelude-ls@1.1.2 </tspan>
<tspan x="10" y="4890">  │ │ │ │ │ ├── type-check@0.3.2 </tspan>
<tspan x="10" y="4906">  │ │ │ │ │ └── wordwrap@1.0.0 </tspan>
<tspan x="10" y="4922">  │ │ │ │ └─┬ source-map@0.2.0 </tspan>
<tspan x="10" y="4938">  │ │ │ │   └── amdefine@1.0.1 </tspan>
<tspan x="10" y="4954">  │ │ │ ├── lodash@4.17.4 </tspan>
<tspan x="10" y="4970">  │ │ │ └── traverse@0.6.6 </tspan>
<tspan x="10" y="4986">  │ │ └── lodash@4.17.4 </tspan>
<tspan x="10" y="5002">  │ ├─┬ inquirer@0.11.4 </tspan>
<tspan x="10" y="5018">  │ │ ├── ansi-escapes@1.4.0 </tspan>
<tspan x="10" y="5034">  │ │ ├─┬ cli-cursor@1.0.2 </tspan>
<tspan x="10" y="5050">  │ │ │ └─┬ restore-cursor@1.0.1 </tspan>
<tspan x="10" y="5066">  │ │ │   └── exit-hook@1.1.1 </tspan>
<tspan x="10" y="5082">  │ │ ├── cli-width@1.1.1 </tspan>
<tspan x="10" y="5098">  │ │ ├── lodash@3.10.1 </tspan>
<tspan x="10" y="5114">  │ │ ├─┬ readline2@1.0.1 </tspan>
<tspan x="10" y="5130">  │ │ │ ├── code-point-at@1.1.0 </tspan>
<tspan x="10" y="5146">  │ │ │ ├── is-fullwidth-code-point@1.0.0 </tspan>
<tspan x="10" y="5162">  │ │ │ └── mute-stream@0.0.5 </tspan>
<tspan x="10" y="5178">  │ │ ├── run-async@0.1.0 </tspan>
<tspan x="10" y="5194">  │ │ ├── rx-lite@3.1.2 </tspan>
<tspan x="10" y="5210">  │ │ ├── string-width@1.0.2 </tspan>
<tspan x="10" y="5226">  │ │ └── through@2.3.8 </tspan>
<tspan x="10" y="5242">  │ ├─┬ istextorbinary@1.0.2 </tspan>
<tspan x="10" y="5258">  │ │ ├── binaryextensions@1.0.1 </tspan>
<tspan x="10" y="5274">  │ │ └── textextensions@1.0.2 </tspan>
<tspan x="10" y="5290">  │ ├── lodash@3.10.1 </tspan>
<tspan x="10" y="5306">  │ ├─┬ mem-fs-editor@2.3.0 </tspan>
<tspan x="10" y="5322">  │ │ ├── commondir@1.0.1 </tspan>
<tspan x="10" y="5338">  │ │ ├── deep-extend@0.4.1 </tspan>
<tspan x="10" y="5354">  │ │ ├─┬ globby@4.1.0 </tspan>
<tspan x="10" y="5370">  │ │ │ ├── array-union@1.0.2 </tspan>
<tspan x="10" y="5386">  │ │ │ ├── glob@6.0.4 </tspan>
<tspan x="10" y="5402">  │ │ │ └── object-assign@4.1.1 </tspan>
<tspan x="10" y="5418">  │ │ └─┬ multimatch@2.1.0 </tspan>
<tspan x="10" y="5434">  │ │   └── array-differ@1.0.0 </tspan>
<tspan x="10" y="5450">  │ ├─┬ nopt@3.0.6 </tspan>
<tspan x="10" y="5466">  │ │ └── abbrev@1.1.0 </tspan>
<tspan x="10" y="5482">  │ ├── path-exists@2.1.0 </tspan>
<tspan x="10" y="5498">  │ ├── path-is-absolute@1.0.1 </tspan>
<tspan x="10" y="5514">  │ ├── pretty-bytes@2.0.1 </tspan>
<tspan x="10" y="5530">  │ ├── read-chunk@1.0.1 </tspan>
<tspan x="10" y="5546">  │ ├─┬ read-pkg-up@1.0.1 </tspan>
<tspan x="10" y="5562">  │ │ └─┬ read-pkg@1.1.0 </tspan>
<tspan x="10" y="5578">  │ │   ├── load-json-file@1.1.0 </tspan>
<tspan x="10" y="5594">  │ │   └── path-type@1.1.0 </tspan>
<tspan x="10" y="5610">  │ ├── shelljs@0.5.3 </tspan>
<tspan x="10" y="5626">  │ ├─┬ sinon@1.17.7 </tspan>
<tspan x="10" y="5642">  │ │ ├── formatio@1.1.1 </tspan>
<tspan x="10" y="5658">  │ │ ├── lolex@1.3.2 </tspan>
<tspan x="10" y="5674">  │ │ ├── samsam@1.1.2 </tspan>
<tspan x="10" y="5690">  │ │ └─┬ util@0.10.3 </tspan>
<tspan x="10" y="5706">  │ │   └── inherits@2.0.1 </tspan>
<tspan x="10" y="5722">  │ ├── text-table@0.2.0 </tspan>
<tspan x="10" y="5738">  │ ├─┬ through2@2.0.3 </tspan>
<tspan x="10" y="5754">  │ │ ├─┬ readable-stream@2.2.9 </tspan>
<tspan x="10" y="5770">  │ │ │ ├── isarray@1.0.0 </tspan>
<tspan x="10" y="5786">  │ │ │ └── string_decoder@1.0.0 </tspan>
<tspan x="10" y="5802">  │ │ └── xtend@4.0.1 </tspan>
<tspan x="10" y="5818">  │ ├─┬ user-home@2.0.0 </tspan>
<tspan x="10" y="5834">  │ │ └── os-homedir@1.0.2 </tspan>
<tspan x="10" y="5850">  │ ├── xdg-basedir@2.0.0 </tspan>
<tspan x="10" y="5866">  │ ├── yeoman-assert@2.2.3 </tspan>
<tspan x="10" y="5882">  │ ├─┬ yeoman-environment@1.5.3 </tspan>
<tspan x="10" y="5898">  │ │ ├── diff@2.2.3 </tspan>
<tspan x="10" y="5914">  │ │ ├─┬ grouped-queue@0.3.3 </tspan>
<tspan x="10" y="5930">  │ │ │ └── lodash@4.17.4 </tspan>
<tspan x="10" y="5946">  │ │ ├── lodash@3.10.1 </tspan>
<tspan x="10" y="5962">  │ │ ├── log-symbols@1.0.2 </tspan>
<tspan x="10" y="5978">  │ │ ├─┬ mem-fs@1.1.3 </tspan>
<tspan x="10" y="5994">  │ │ │ └─┬ vinyl-file@2.0.0 </tspan>
<tspan x="10" y="6010">  │ │ │   └─┬ strip-bom-stream@2.0.0 </tspan>
<tspan x="10" y="6026">  │ │ │     └─┬ first-chunk-stream@2.0.0 </tspan>
<tspan x="10" y="6042">  │ │ │       └─┬ readable-stream@2.2.9 </tspan>
<tspan x="10" y="6058">  │ │ │         ├── isarray@1.0.0 </tspan>
<tspan x="10" y="6074">  │ │ │         └── string_decoder@1.0.0 </tspan>
<tspan x="10" y="6090">  │ │ └── untildify@2.1.0 </tspan>
<tspan x="10" y="6106">  │ └── yeoman-welcome@1.0.1 </tspan>
<tspan x="10" y="6122">  └─┬ yo@1.5.1 </tspan>
<tspan x="10" y="6138">    ├─┬ configstore@1.4.0 </tspan>
<tspan x="10" y="6154">    │ ├── graceful-fs@4.1.11 </tspan>
<tspan x="10" y="6170">    │ ├── object-assign@4.1.1 </tspan>
<tspan x="10" y="6186">    │ ├── os-tmpdir@1.0.2 </tspan>
<tspan x="10" y="6202">    │ ├── osenv@0.1.4 </tspan>
<tspan x="10" y="6218">    │ ├── uuid@2.0.3 </tspan>
<tspan x="10" y="6234">    │ └─┬ write-file-atomic@1.3.1 </tspan>
<tspan x="10" y="6250">    │   ├── imurmurhash@0.1.4 </tspan>
<tspan x="10" y="6266">    │   └── slide@1.1.6 </tspan>
<tspan x="10" y="6282">    ├─┬ cross-spawn-async@2.2.5 </tspan>
<tspan x="10" y="6298">    │ ├─┬ lru-cache@4.0.2 </tspan>
<tspan x="10" y="6314">    │ │ ├── pseudomap@1.0.2 </tspan>
<tspan x="10" y="6330">    │ │ └── yallist@2.1.2 </tspan>
<tspan x="10" y="6346">    │ └─┬ which@1.2.14 </tspan>
<tspan x="10" y="6362">    │   └── isexe@2.0.0 </tspan>
<tspan x="10" y="6378">    ├─┬ figures@1.7.0 </tspan>
<tspan x="10" y="6394">    │ └── object-assign@4.1.1 </tspan>
<tspan x="10" y="6410">    ├─┬ fullname@2.1.0 </tspan>
<tspan x="10" y="6426">    │ ├─┬ npmconf@2.1.2 </tspan>
<tspan x="10" y="6442">    │ │ ├─┬ config-chain@1.1.11 </tspan>
<tspan x="10" y="6458">    │ │ │ └── proto-list@1.2.4 </tspan>
<tspan x="10" y="6474">    │ │ ├── ini@1.3.4 </tspan>
<tspan x="10" y="6490">    │ │ ├── once@1.3.3 </tspan>
<tspan x="10" y="6506">    │ │ ├── semver@4.3.6 </tspan>
<tspan x="10" y="6522">    │ │ └── uid-number@0.0.5 </tspan>
<tspan x="10" y="6538">    │ └── pify@2.3.0 </tspan>
<tspan x="10" y="6554">    ├─┬ got@5.7.1 </tspan>
<tspan x="10" y="6570">    │ ├─┬ create-error-class@3.0.2 </tspan>
<tspan x="10" y="6586">    │ │ └── capture-stack-trace@1.0.0 </tspan>
<tspan x="10" y="6602">    │ ├─┬ duplexer2@0.1.4 </tspan>
<tspan x="10" y="6618">    │ │ └─┬ readable-stream@2.2.9 </tspan>
<tspan x="10" y="6634">    │ │   ├── isarray@1.0.0 </tspan>
<tspan x="10" y="6650">    │ │   └── string_decoder@1.0.0 </tspan>
<tspan x="10" y="6666">    │ ├── is-redirect@1.0.0 </tspan>
<tspan x="10" y="6682">    │ ├── is-retry-allowed@1.1.0 </tspan>
<tspan x="10" y="6698">    │ ├── is-stream@1.1.0 </tspan>
<tspan x="10" y="6714">    │ ├── lowercase-keys@1.0.0 </tspan>
<tspan x="10" y="6730">    │ ├── node-status-codes@1.0.0 </tspan>
<tspan x="10" y="6746">    │ ├── object-assign@4.1.1 </tspan>
<tspan x="10" y="6762">    │ ├─┬ parse-json@2.2.0 </tspan>
<tspan x="10" y="6778">    │ │ └─┬ error-ex@1.3.1 </tspan>
<tspan x="10" y="6794">    │ │   └── is-arrayish@0.2.1 </tspan>
<tspan x="10" y="6810">    │ ├─┬ readable-stream@2.2.9 </tspan>
<tspan x="10" y="6826">    │ │ ├── isarray@1.0.0 </tspan>
<tspan x="10" y="6842">    │ │ └── string_decoder@1.0.0 </tspan>
<tspan x="10" y="6858">    │ ├── timed-out@3.1.3 </tspan>
<tspan x="10" y="6874">    │ ├── unzip-response@1.0.2 </tspan>
<tspan x="10" y="6890">    │ └─┬ url-parse-lax@1.0.0 </tspan>
<tspan x="10" y="6906">    │   └── prepend-http@1.0.4 </tspan>
<tspan x="10" y="6922">    ├─┬ humanize-string@1.0.1 </tspan>
<tspan x="10" y="6938">    │ └── decamelize@1.2.0 </tspan>
<tspan x="10" y="6954">    ├─┬ insight@0.7.0 </tspan>
<tspan x="10" y="6970">    │ ├─┬ inquirer@0.10.1 </tspan>
<tspan x="10" y="6986">    │ │ └── lodash@3.10.1 </tspan>
<tspan x="10" y="7002">    │ ├─┬ lodash.debounce@3.1.1 </tspan>
<tspan x="10" y="7018">    │ │ └── lodash._getnative@3.9.1 </tspan>
<tspan x="10" y="7034">    │ ├── object-assign@4.1.1 </tspan>
<tspan x="10" y="7050">    │ ├─┬ os-name@1.0.3 </tspan>
<tspan x="10" y="7066">    │ │ ├── osx-release@1.1.0 </tspan>
<tspan x="10" y="7082">    │ │ └── win-release@1.1.1 </tspan>
<tspan x="10" y="7098">    │ ├─┬ request@2.81.0 </tspan>
<tspan x="10" y="7114">    │ │ ├── aws-sign2@0.6.0 </tspan>
<tspan x="10" y="7130">    │ │ ├── aws4@1.6.0 </tspan>
<tspan x="10" y="7146">    │ │ ├── caseless@0.12.0 </tspan>
<tspan x="10" y="7162">    │ │ ├─┬ combined-stream@1.0.5 </tspan>
<tspan x="10" y="7178">    │ │ │ └── delayed-stream@1.0.0 </tspan>
<tspan x="10" y="7194">    │ │ ├── extend@3.0.0 </tspan>
<tspan x="10" y="7210">    │ │ ├── forever-agent@0.6.1 </tspan>
<tspan x="10" y="7226">    │ │ ├─┬ form-data@2.1.4 </tspan>
<tspan x="10" y="7242">    │ │ │ └── asynckit@0.4.0 </tspan>
<tspan x="10" y="7258">    │ │ ├─┬ har-validator@4.2.1 </tspan>
<tspan x="10" y="7274">    │ │ │ ├─┬ ajv@4.11.7 </tspan>
<tspan x="10" y="7290">    │ │ │ │ └── co@4.6.0 </tspan>
<tspan x="10" y="7306">    │ │ │ └── har-schema@1.0.5 </tspan>
<tspan x="10" y="7322">    │ │ ├─┬ hawk@3.1.3 </tspan>
<tspan x="10" y="7338">    │ │ │ ├── boom@2.10.1 </tspan>
<tspan x="10" y="7354">    │ │ │ ├── cryptiles@2.0.5 </tspan>
<tspan x="10" y="7370">    │ │ │ ├── hoek@2.16.3 </tspan>
<tspan x="10" y="7386">    │ │ │ └── sntp@1.0.9 </tspan>
<tspan x="10" y="7402">    │ │ ├─┬ http-signature@1.1.1 </tspan>
<tspan x="10" y="7418">    │ │ │ ├── assert-plus@0.2.0 </tspan>
<tspan x="10" y="7434">    │ │ │ ├─┬ jsprim@1.4.0 </tspan>
<tspan x="10" y="7450">    │ │ │ │ ├── assert-plus@1.0.0 </tspan>
<tspan x="10" y="7466">    │ │ │ │ ├── extsprintf@1.0.2 </tspan>
<tspan x="10" y="7482">    │ │ │ │ ├── json-schema@0.2.3 </tspan>
<tspan x="10" y="7498">    │ │ │ │ └── verror@1.3.6 </tspan>
<tspan x="10" y="7514">    │ │ │ └─┬ sshpk@1.13.0 </tspan>
<tspan x="10" y="7530">    │ │ │   ├── asn1@0.2.3 </tspan>
<tspan x="10" y="7546">    │ │ │   ├── assert-plus@1.0.0 </tspan>
<tspan x="10" y="7562">    │ │ │   ├── bcrypt-pbkdf@1.0.1 </tspan>
<tspan x="10" y="7578">    │ │ │   ├─┬ dashdash@1.14.1 </tspan>
<tspan x="10" y="7594">    │ │ │   │ └── assert-plus@1.0.0 </tspan>
<tspan x="10" y="7610">    │ │ │   ├── ecc-jsbn@0.1.1 </tspan>
<tspan x="10" y="7626">    │ │ │   ├─┬ getpass@0.1.6 </tspan>
<tspan x="10" y="7642">    │ │ │   │ └── assert-plus@1.0.0 </tspan>
<tspan x="10" y="7658">    │ │ │   ├── jodid25519@1.0.2 </tspan>
<tspan x="10" y="7674">    │ │ │   ├── jsbn@0.1.1 </tspan>
<tspan x="10" y="7690">    │ │ │   └── tweetnacl@0.14.5 </tspan>
<tspan x="10" y="7706">    │ │ ├── is-typedarray@1.0.0 </tspan>
<tspan x="10" y="7722">    │ │ ├── isstream@0.1.2 </tspan>
<tspan x="10" y="7738">    │ │ ├── json-stringify-safe@5.0.1 </tspan>
<tspan x="10" y="7754">    │ │ ├─┬ mime-types@2.1.15 </tspan>
<tspan x="10" y="7770">    │ │ │ └── mime-db@1.27.0 </tspan>
<tspan x="10" y="7786">    │ │ ├── oauth-sign@0.8.2 </tspan>
<tspan x="10" y="7802">    │ │ ├── performance-now@0.2.0 </tspan>
<tspan x="10" y="7818">    │ │ ├── qs@6.4.0 </tspan>
<tspan x="10" y="7834">    │ │ ├── safe-buffer@5.0.1 </tspan>
<tspan x="10" y="7850">    │ │ ├── stringstream@0.0.5 </tspan>
<tspan x="10" y="7866">    │ │ ├── tunnel-agent@0.6.0 </tspan>
<tspan x="10" y="7882">    │ │ └── uuid@3.0.1 </tspan>
<tspan x="10" y="7898">    │ └─┬ tough-cookie@2.3.2 </tspan>
<tspan x="10" y="7914">    │   └── punycode@1.4.1 </tspan>
<tspan x="10" y="7930">    ├── lodash@3.10.1 </tspan>
<tspan x="10" y="7946">    ├─┬ meow@3.7.0 </tspan>
<tspan x="10" y="7962">    │ ├─┬ camelcase-keys@2.1.0 </tspan>
<tspan x="10" y="7978">    │ │ └── camelcase@2.1.1 </tspan>
<tspan x="10" y="7994">    │ ├─┬ loud-rejection@1.6.0 </tspan>
<tspan x="10" y="8010">    │ │ ├─┬ currently-unhandled@0.4.1 </tspan>
<tspan x="10" y="8026">    │ │ │ └── array-find-index@1.0.2 </tspan>
<tspan x="10" y="8042">    │ │ └── signal-exit@3.0.2 </tspan>
<tspan x="10" y="8058">    │ ├── map-obj@1.0.1 </tspan>
<tspan x="10" y="8074">    │ ├─┬ normalize-package-data@2.3.6 </tspan>
<tspan x="10" y="8090">    │ │ ├── hosted-git-info@2.4.2 </tspan>
<tspan x="10" y="8106">    │ │ ├─┬ is-builtin-module@1.0.0 </tspan>
<tspan x="10" y="8122">    │ │ │ └── builtin-modules@1.1.1 </tspan>
<tspan x="10" y="8138">    │ │ └─┬ validate-npm-package-license@3.0.1 </tspan>
<tspan x="10" y="8154">    │ │   ├─┬ spdx-correct@1.0.2 </tspan>
<tspan x="10" y="8170">    │ │   │ └── spdx-license-ids@1.2.2 </tspan>
<tspan x="10" y="8186">    │ │   └── spdx-expression-parse@1.0.4 </tspan>
<tspan x="10" y="8202">    │ ├── object-assign@4.1.1 </tspan>
<tspan x="10" y="8218">    │ ├─┬ redent@1.0.0 </tspan>
<tspan x="10" y="8234">    │ │ ├── indent-string@2.1.0 </tspan>
<tspan x="10" y="8250">    │ │ └── strip-indent@1.0.1 </tspan>
<tspan x="10" y="8266">    │ └── trim-newlines@1.0.0 </tspan>
<tspan x="10" y="8282">    ├─┬ npm-keyword@4.2.0 </tspan>
<tspan x="10" y="8298">    │ ├── object-assign@4.1.1 </tspan>
<tspan x="10" y="8314">    │ └─┬ registry-url@3.1.0 </tspan>
<tspan x="10" y="8330">    │   └─┬ rc@1.2.1 </tspan>
<tspan x="10" y="8346">    │     └── strip-json-comments@2.0.1 </tspan>
<tspan x="10" y="8362">    ├─┬ opn@3.0.3 </tspan>
<tspan x="10" y="8378">    │ └── object-assign@4.1.1 </tspan>
<tspan x="10" y="8394">    ├─┬ package-json@2.4.0 </tspan>
<tspan x="10" y="8410">    │ ├── registry-auth-token@3.1.2 </tspan>
<tspan x="10" y="8426">    │ └── semver@5.3.0 </tspan>
<tspan x="10" y="8442">    ├─┬ repeating@2.0.1 </tspan>
<tspan x="10" y="8458">    │ └── is-finite@1.0.2 </tspan>
<tspan x="10" y="8474">    ├─┬ root-check@1.0.0 </tspan>
<tspan x="10" y="8490">    │ ├─┬ downgrade-root@1.2.2 </tspan>
<tspan x="10" y="8506">    │ │ ├── default-uid@1.0.0 </tspan>
<tspan x="10" y="8522">    │ │ └── is-root@1.0.0 </tspan>
<tspan x="10" y="8538">    │ └─┬ sudo-block@1.2.0 </tspan>
<tspan x="10" y="8554">    │   └── is-docker@1.1.0 </tspan>
<tspan x="10" y="8570">    ├─┬ sort-on@1.3.0 </tspan>
<tspan x="10" y="8586">    │ ├── arrify@1.0.1 </tspan>
<tspan x="10" y="8602">    │ └── dot-prop@2.4.0 </tspan>
<tspan x="10" y="8618">    ├── string-length@1.0.1 </tspan>
<tspan x="10" y="8634">    ├── titleize@1.0.0 </tspan>
<tspan x="10" y="8650">    ├─┬ update-notifier@0.5.0 </tspan>
<tspan x="10" y="8666">    │ ├── is-npm@1.0.0 </tspan>
<tspan x="10" y="8682">    │ ├─┬ latest-version@1.0.1 </tspan>
<tspan x="10" y="8698">    │ │ └─┬ package-json@1.2.0 </tspan>
<tspan x="10" y="8714">    │ │   └─┬ got@3.3.1 </tspan>
<tspan x="10" y="8730">    │ │     ├── infinity-agent@2.0.3 </tspan>
<tspan x="10" y="8746">    │ │     ├── nested-error-stacks@1.0.2 </tspan>
<tspan x="10" y="8762">    │ │     ├── object-assign@3.0.0 </tspan>
<tspan x="10" y="8778">    │ │     └── timed-out@2.0.0 </tspan>
<tspan x="10" y="8794">    │ ├── repeating@1.1.3 </tspan>
<tspan x="10" y="8810">    │ └── semver-diff@2.1.0 </tspan>
<tspan x="10" y="8826">    ├─┬ yeoman-character@1.1.0 </tspan>
<tspan x="10" y="8842">    │ └─┬ supports-color@3.2.3 </tspan>
<tspan x="10" y="8858">    │   └── has-flag@1.0.0 </tspan>
<tspan x="10" y="8874">    ├─┬ yeoman-doctor@2.1.0 </tspan>
<tspan x="10" y="8890">    │ ├─┬ bin-version-check@2.1.0 </tspan>
<tspan x="10" y="8906">    │ │ ├─┬ bin-version@1.0.4 </tspan>
<tspan x="10" y="8922">    │ │ │ └─┬ find-versions@1.2.1 </tspan>
<tspan x="10" y="8938">    │ │ │   └── semver-regex@1.0.0 </tspan>
<tspan x="10" y="8954">    │ │ ├── semver@4.3.6 </tspan>
<tspan x="10" y="8970">    │ │ └── semver-truncate@1.1.2 </tspan>
<tspan x="10" y="8986">    │ ├── object-values@1.0.0 </tspan>
<tspan x="10" y="9002">    │ └─┬ twig@0.8.9 </tspan>
<tspan x="10" y="9018">    │   └─┬ walk@2.3.9 </tspan>
<tspan x="10" y="9034">    │     └── foreachasync@3.0.0 </tspan>
<tspan x="10" y="9050">    └─┬ yosay@1.2.1 </tspan>
<tspan x="10" y="9066">      ├── cli-boxes@1.0.0 </tspan>
<tspan x="10" y="9082">      ├── pad-component@0.0.1 </tspan>
<tspan x="10" y="9098">      ├── taketalk@1.0.0 </tspan>
<tspan x="10" y="9114">      └── wrap-ansi@2.1.0</tspan>
</text>
</svg>
